<svg xmlns="http://www.w3.org/2000/svg" version="1.1" xmlns:xlink="http://www.w3.org/1999/xlink" xmlns:svgjs="http://svgjs.dev/svgjs" width="1440" height="560" preserveAspectRatio="none" viewBox="0 0 1440 560"><g mask="url(&quot;#SvgjsMask3553&quot;)" fill="none"><rect width="1440" height="560" x="0" y="0" fill="url(&quot;#SvgjsRadialGradient3554&quot;)"></rect><rect width="134.8" height="134.8" clip-path="url(&quot;#SvgjsClipPath3555&quot;)" x="-35.13" y="310.04" fill="url(&quot;#SvgjsPattern3556&quot;)" transform="rotate(206.46, 32.27, 377.44)"></rect><path d="M489.36 236.72 L399.76 288.25L512.3446390923413 330.2696390923412z" fill="rgba(84, 106, 118, 1)"></path><circle r="46.666666666666664" cx="1149.13" cy="480.83" fill="rgba(206, 129, 71, 1)"></circle><rect width="226.16" height="226.16" clip-path="url(&quot;#SvgjsClipPath3557&quot;)" x="1052.03" y="233.16" fill="url(&quot;#SvgjsPattern3558&quot;)" transform="rotate(4.45, 1165.11, 346.24)"></rect><rect width="356.16" height="356.16" clip-path="url(&quot;#SvgjsClipPath3559&quot;)" x="274.43" y="68.65" fill="url(&quot;#SvgjsPattern3560&quot;)" transform="rotate(220.29, 452.51, 246.73)"></rect><rect width="216" height="216" clip-path="url(&quot;#SvgjsClipPath3561&quot;)" x="69.09" y="179.1" fill="url(&quot;#SvgjsPattern3562&quot;)" transform="rotate(56.36, 177.09, 287.1)"></rect><path d="M950 177.46a5.6 5.6 0 1 0 3.13 10.75 5.6 5.6 0 1 0-3.13-10.75zM954.47 192.82a5.6 5.6 0 1 0 3.13 10.76 5.6 5.6 0 1 0-3.13-10.76zM958.94 208.18a5.6 5.6 0 1 0 3.13 10.76 5.6 5.6 0 1 0-3.13-10.76zM963.41 223.55a5.6 5.6 0 1 0 3.13 10.75 5.6 5.6 0 1 0-3.13-10.75zM925.69 151.21a5.6 5.6 0 1 0 3.13 10.75 5.6 5.6 0 1 0-3.13-10.75zM930.16 166.57a5.6 5.6 0 1 0 3.13 10.75 5.6 5.6 0 1 0-3.13-10.75zM934.64 181.93a5.6 5.6 0 1 0 3.13 10.76 5.6 5.6 0 1 0-3.13-10.76zM939.11 197.29a5.6 5.6 0 1 0 3.13 10.76 5.6 5.6 0 1 0-3.13-10.76z" fill="rgba(84, 106, 118, 1)"></path><circle r="46.666666666666664" cx="378.8" cy="246.35" stroke="rgba(37, 22, 5, 1)" stroke-width="1" stroke-dasharray="3, 2"></circle><path d="M1253.72 432.97a5.6 5.6 0 1 0 10.44 4.07 5.6 5.6 0 1 0-10.44-4.07zM1268.63 438.78a5.6 5.6 0 1 0 10.43 4.07 5.6 5.6 0 1 0-10.43-4.07zM1283.54 444.6a5.6 5.6 0 1 0 10.43 4.06 5.6 5.6 0 1 0-10.43-4.06zM1298.44 450.41a5.6 5.6 0 1 0 10.44 4.07 5.6 5.6 0 1 0-10.44-4.07zM1218.1 436.25a5.6 5.6 0 1 0 10.43 4.07 5.6 5.6 0 1 0-10.43-4.07zM1233 442.07a5.6 5.6 0 1 0 10.44 4.07 5.6 5.6 0 1 0-10.44-4.07zM1247.91 447.88a5.6 5.6 0 1 0 10.43 4.07 5.6 5.6 0 1 0-10.43-4.07zM1262.82 453.69a5.6 5.6 0 1 0 10.43 4.07 5.6 5.6 0 1 0-10.43-4.07zM1182.47 439.54a5.6 5.6 0 1 0 10.43 4.07 5.6 5.6 0 1 0-10.43-4.07zM1197.38 445.35a5.6 5.6 0 1 0 10.43 4.07 5.6 5.6 0 1 0-10.43-4.07zM1212.28 451.16a5.6 5.6 0 1 0 10.44 4.07 5.6 5.6 0 1 0-10.44-4.07zM1227.19 456.97a5.6 5.6 0 1 0 10.44 4.07 5.6 5.6 0 1 0-10.44-4.07z" fill="rgba(206, 129, 71, 1)"></path><path d="M754.04 10.55a5.6 5.6 0 1 0-5.71 9.63 5.6 5.6 0 1 0 5.71-9.63zM745.88 24.31a5.6 5.6 0 1 0-5.72 9.63 5.6 5.6 0 1 0 5.72-9.63zM737.71 38.07a5.6 5.6 0 1 0-5.72 9.63 5.6 5.6 0 1 0 5.72-9.63zM729.54 51.82a5.6 5.6 0 1 0-5.72 9.63 5.6 5.6 0 1 0 5.72-9.63zM756.62-25.13a5.6 5.6 0 1 0-5.71 9.63 5.6 5.6 0 1 0 5.71-9.63zM748.46-11.37a5.6 5.6 0 1 0-5.72 9.63 5.6 5.6 0 1 0 5.72-9.63zM740.29 2.38a5.6 5.6 0 1 0-5.72 9.63 5.6 5.6 0 1 0 5.72-9.63zM732.12 16.14a5.6 5.6 0 1 0-5.72 9.63 5.6 5.6 0 1 0 5.72-9.63z" fill="rgba(239, 100, 97, 1)"></path><path d="M586.14 255.46L579.62 244.43 588.95 235.65 582.43 224.63 591.75 215.85 585.23 204.83 594.55 196.05M594.06 256.58L587.54 245.55 596.87 236.78 590.35 225.75 599.67 216.97 593.15 205.95 602.48 197.17" stroke="rgba(239, 100, 97, 1)" stroke-width="2.8" stroke-dasharray="2, 2"></path><path d="M1432.6200000000001 116.12 L1508.95 85.83L1432.545304996018 62.73530499601794z" fill="rgba(239, 100, 97, 1)"></path></g><defs><mask id="SvgjsMask3553"><rect width="1440" height="560" fill="#ffffff"></rect></mask><radialGradient cx="50%" cy="50%" r="772.53" gradientUnits="userSpaceOnUse" id="SvgjsRadialGradient3554"><stop stop-color="rgba(239, 100, 97, 0.62)" offset="0"></stop><stop stop-color="rgba(239, 100, 97, 1)" offset="1"></stop></radialGradient><pattern x="0" y="0" width="13.48" height="13.48" patternUnits="userSpaceOnUse" id="SvgjsPattern3556"><path d="M6.74 1L6.74 12.48M1 6.74L12.48 6.74" stroke="rgba(206, 129, 71, 1)" fill="none" stroke-width="3.74"></path></pattern><clipPath id="SvgjsClipPath3555"><circle r="33.7" cx="32.27" cy="377.44"></circle></clipPath><pattern x="0" y="0" width="10.28" height="10.28" patternUnits="userSpaceOnUse" id="SvgjsPattern3558"><path d="M0 10.28L5.14 0L10.28 10.28" stroke="rgba(239, 100, 97, 1)" fill="none"></path></pattern><clipPath id="SvgjsClipPath3557"><circle r="56.54" cx="1165.11" cy="346.24"></circle></clipPath><pattern x="0" y="0" width="6.36" height="6.36" patternUnits="userSpaceOnUse" id="SvgjsPattern3560"><path d="M3.18 1L3.18 5.36M1 3.18L5.36 3.18" stroke="rgba(77, 170, 87, 1)" fill="none" stroke-width="1.89"></path></pattern><clipPath id="SvgjsClipPath3559"><circle r="89.04" cx="452.51" cy="246.73"></circle></clipPath><pattern x="0" y="0" width="6" height="6" patternUnits="userSpaceOnUse" id="SvgjsPattern3562"><path d="M3 1L3 5M1 3L5 3" stroke="rgba(84, 106, 118, 1)" fill="none" stroke-width="1"></path></pattern><clipPath id="SvgjsClipPath3561"><circle r="54" cx="177.09" cy="287.1"></circle></clipPath></defs></svg>