<svg xmlns="http://www.w3.org/2000/svg" version="1.1" xmlns:xlink="http://www.w3.org/1999/xlink" xmlns:svgjs="http://svgjs.dev/svgjs" width="1440" height="560" preserveAspectRatio="none" viewBox="0 0 1440 560"><g mask="url(&quot;#SvgjsMask1075&quot;)" fill="none"><path d="M 0,122 C 72,128.2 216,166.2 360,153 C 504,139.8 576,31.4 720,56 C 864,80.6 936,281.6 1080,276 C 1224,270.4 1368,77.6 1440,28L1440 560L0 560z" fill="rgba(206, 129, 71, 1)"></path><path d="M 0,554 C 72,526 216,430.8 360,414 C 504,397.2 576,473.2 720,470 C 864,466.8 936,392.8 1080,398 C 1224,403.2 1368,476.4 1440,496L1440 560L0 560z" fill="rgba(239, 100, 97, 1)"></path></g><defs><mask id="SvgjsMask1075"><rect width="1440" height="560" fill="#ffffff"></rect></mask></defs></svg>